<mxfile host="app.diagrams.net" agent="Mozilla/5.0 (Macintosh; Intel Mac OS X 10_15_7) AppleWebKit/537.36 (KHTML, like Gecko) Chrome/133.0.0.0 Safari/537.36" version="26.1.0">
  <diagram id="2iPeXi3WJqnUd4iWeMIH" name="第 1 页">
    <mxGraphModel dx="1147" dy="628" grid="1" gridSize="10" guides="1" tooltips="1" connect="1" arrows="1" fold="1" page="1" pageScale="1" pageWidth="827" pageHeight="1169" math="1" shadow="0">
      <root>
        <mxCell id="0" />
        <mxCell id="1" parent="0" />
        <mxCell id="-12hUw2T3Q_oKYY7h8Hd-7" value="" style="group;strokeColor=default;strokeWidth=2;" vertex="1" connectable="0" parent="1">
          <mxGeometry x="280" y="130" width="140" height="200" as="geometry" />
        </mxCell>
        <mxCell id="2" value="&lt;font face=&quot;宋体&quot;&gt;&lt;span style=&quot;font-size: 24px;&quot;&gt;\(ISR_0\)&lt;/span&gt;&lt;/font&gt;" style="rounded=0;whiteSpace=wrap;html=1;strokeWidth=2;fillColor=none;" parent="-12hUw2T3Q_oKYY7h8Hd-7" vertex="1">
          <mxGeometry width="140" height="40" as="geometry" />
        </mxCell>
        <mxCell id="-12hUw2T3Q_oKYY7h8Hd-3" value="&lt;span style=&quot;font-family: 宋体; font-size: 24px;&quot;&gt;\(ISR_1\)&lt;/span&gt;" style="rounded=0;whiteSpace=wrap;html=1;strokeWidth=2;fillColor=none;" vertex="1" parent="-12hUw2T3Q_oKYY7h8Hd-7">
          <mxGeometry y="40" width="140" height="40" as="geometry" />
        </mxCell>
        <mxCell id="-12hUw2T3Q_oKYY7h8Hd-4" value="&lt;span style=&quot;font-family: 宋体; font-size: 24px;&quot;&gt;\(ISR_n\)&lt;/span&gt;" style="rounded=0;whiteSpace=wrap;html=1;strokeWidth=2;fillColor=none;" vertex="1" parent="-12hUw2T3Q_oKYY7h8Hd-7">
          <mxGeometry y="160" width="140" height="40" as="geometry" />
        </mxCell>
        <mxCell id="-12hUw2T3Q_oKYY7h8Hd-5" value="" style="rounded=0;whiteSpace=wrap;html=1;strokeWidth=2;fillColor=none;strokeColor=none;" vertex="1" parent="-12hUw2T3Q_oKYY7h8Hd-7">
          <mxGeometry y="80" width="140" height="40" as="geometry" />
        </mxCell>
        <mxCell id="-12hUw2T3Q_oKYY7h8Hd-6" value="" style="rounded=0;whiteSpace=wrap;html=1;strokeWidth=2;fillColor=none;strokeColor=none;" vertex="1" parent="-12hUw2T3Q_oKYY7h8Hd-7">
          <mxGeometry y="120" width="140" height="40" as="geometry" />
        </mxCell>
        <mxCell id="-12hUw2T3Q_oKYY7h8Hd-9" value="" style="endArrow=none;dashed=1;html=1;dashPattern=1 3;strokeWidth=6;rounded=0;" edge="1" parent="-12hUw2T3Q_oKYY7h8Hd-7">
          <mxGeometry width="50" height="50" relative="1" as="geometry">
            <mxPoint x="69.76199999999999" y="147" as="sourcePoint" />
            <mxPoint x="69.76199999999999" y="87" as="targetPoint" />
          </mxGeometry>
        </mxCell>
        <mxCell id="-12hUw2T3Q_oKYY7h8Hd-10" value="&lt;font style=&quot;font-size: 24px;&quot; face=&quot;宋体&quot;&gt;就绪队列&lt;/font&gt;" style="rounded=0;whiteSpace=wrap;html=1;strokeWidth=2;" vertex="1" parent="1">
          <mxGeometry x="530" y="130" width="110" height="240" as="geometry" />
        </mxCell>
        <mxCell id="-12hUw2T3Q_oKYY7h8Hd-11" value="" style="endArrow=open;html=1;rounded=0;strokeWidth=2;endFill=0;strokeColor=#666666;entryX=0;entryY=0.5;entryDx=0;entryDy=0;" edge="1" parent="1" target="-12hUw2T3Q_oKYY7h8Hd-3">
          <mxGeometry width="50" height="50" relative="1" as="geometry">
            <mxPoint x="230" y="190" as="sourcePoint" />
            <mxPoint x="170" y="180" as="targetPoint" />
          </mxGeometry>
        </mxCell>
        <mxCell id="-12hUw2T3Q_oKYY7h8Hd-12" value="" style="endArrow=classic;html=1;rounded=0;strokeWidth=2;exitX=1;exitY=0.5;exitDx=0;exitDy=0;entryX=0;entryY=0.75;entryDx=0;entryDy=0;edgeStyle=orthogonalEdgeStyle;" edge="1" parent="1" source="-12hUw2T3Q_oKYY7h8Hd-3" target="-12hUw2T3Q_oKYY7h8Hd-10">
          <mxGeometry width="50" height="50" relative="1" as="geometry">
            <mxPoint x="460" y="100" as="sourcePoint" />
            <mxPoint x="510" y="50" as="targetPoint" />
          </mxGeometry>
        </mxCell>
        <mxCell id="-12hUw2T3Q_oKYY7h8Hd-14" value="&lt;font style=&quot;font-size: 24px;&quot; face=&quot;宋体&quot;&gt;网卡中断&lt;/font&gt;" style="text;html=1;align=center;verticalAlign=middle;resizable=0;points=[];autosize=1;strokeColor=none;fillColor=none;" vertex="1" parent="1">
          <mxGeometry x="120" y="170" width="120" height="40" as="geometry" />
        </mxCell>
        <mxCell id="-12hUw2T3Q_oKYY7h8Hd-15" value="&lt;font style=&quot;font-size: 24px;&quot; face=&quot;宋体&quot;&gt;外部中断&lt;/font&gt;&lt;span style=&quot;font-size: 24px; font-family: 宋体; background-color: transparent; color: light-dark(rgb(0, 0, 0), rgb(255, 255, 255));&quot;&gt;能力槽&lt;/span&gt;" style="text;html=1;align=center;verticalAlign=middle;resizable=0;points=[];autosize=1;strokeColor=none;fillColor=none;" vertex="1" parent="1">
          <mxGeometry x="255" y="340" width="190" height="40" as="geometry" />
        </mxCell>
      </root>
    </mxGraphModel>
  </diagram>
</mxfile>
